<?xml version="1.0" encoding="UTF-8" standalone="yes"?><svg xmlns="http://www.w3.org/2000/svg" xmlns:xlink="http://www.w3.org/1999/xlink" height="685px" style="width:916px;height:685px;" version="1.1" viewBox="0 0 916 685" width="916px"><defs><filter height="300%" id="f1" width="300%" x="-1" y="-1"><feGaussianBlur result="blurOut" stdDeviation="2.0"/><feColorMatrix in="blurOut" result="blurOut2" type="matrix" values="0 0 0 0 0 0 0 0 0 0 0 0 0 0 0 0 0 0 .4 0"/><feOffset dx="4.0" dy="4.0" in="blurOut2" result="blurOut3"/><feBlend in="SourceGraphic" in2="blurOut3" mode="normal"/></filter></defs><g><text fill="#000000" font-family="sans-serif" font-size="14" font-weight="bold" lengthAdjust="spacingAndGlyphs" textLength="216" x="354" y="24.5332">Automatically generate reports</text><rect fill="#FFFFFF" filter="url(#f1)" height="489.9219" style="stroke: #A80036; stroke-width: 1.0;" width="10" x="78.5" y="128.8281"/><rect fill="#FFFFFF" filter="url(#f1)" height="113.2305" style="stroke: #A80036; stroke-width: 1.0;" width="10" x="212" y="266.2344"/><rect fill="#FFFFFF" filter="url(#f1)" height="58.7031" style="stroke: #000000; stroke-width: 2.0;" width="630.5" x="13" y="407.6406"/><rect fill="#FFFFFF" filter="url(#f1)" height="58.7031" style="stroke: #000000; stroke-width: 2.0;" width="677.5" x="13" y="480.3438"/><rect fill="#FFFFFF" filter="url(#f1)" height="58.7031" style="stroke: #000000; stroke-width: 2.0;" width="741.5" x="13" y="553.0469"/><line style="stroke: #A80036; stroke-width: 1.0; stroke-dasharray: 5.0,5.0;" x1="83" x2="83" y1="88.8281" y2="628.75"/><line style="stroke: #A80036; stroke-width: 1.0; stroke-dasharray: 5.0,5.0;" x1="217" x2="217" y1="88.8281" y2="628.75"/><line style="stroke: #A80036; stroke-width: 1.0; stroke-dasharray: 5.0,5.0;" x1="341" x2="341" y1="88.8281" y2="628.75"/><line style="stroke: #A80036; stroke-width: 1.0; stroke-dasharray: 5.0,5.0;" x1="466" x2="466" y1="88.8281" y2="628.75"/><line style="stroke: #A80036; stroke-width: 1.0; stroke-dasharray: 5.0,5.0;" x1="606" x2="606" y1="88.8281" y2="628.75"/><line style="stroke: #A80036; stroke-width: 1.0; stroke-dasharray: 5.0,5.0;" x1="719" x2="719" y1="88.8281" y2="628.75"/><rect fill="#669999" filter="url(#f1)" height="49.2188" style="stroke: #A80036; stroke-width: 1.5;" width="117" x="23" y="34.6094"/><text fill="#000000" font-family="sans-serif" font-size="14" lengthAdjust="spacingAndGlyphs" textLength="27" x="68" y="56.1426">PBS</text><text fill="#000000" font-family="sans-serif" font-size="14" lengthAdjust="spacingAndGlyphs" textLength="103" x="30" y="73.752">AutoReportTask</text><rect fill="#669999" filter="url(#f1)" height="49.2188" style="stroke: #A80036; stroke-width: 1.5;" width="117" x="23" y="627.75"/><text fill="#000000" font-family="sans-serif" font-size="14" lengthAdjust="spacingAndGlyphs" textLength="27" x="68" y="649.2832">PBS</text><text fill="#000000" font-family="sans-serif" font-size="14" lengthAdjust="spacingAndGlyphs" textLength="103" x="30" y="666.8926">AutoReportTask</text><rect fill="#669999" filter="url(#f1)" height="49.2188" style="stroke: #A80036; stroke-width: 1.5;" width="122" x="154" y="34.6094"/><text fill="#000000" font-family="sans-serif" font-size="14" lengthAdjust="spacingAndGlyphs" textLength="27" x="201.5" y="56.1426">PBS</text><text fill="#000000" font-family="sans-serif" font-size="14" lengthAdjust="spacingAndGlyphs" textLength="108" x="161" y="73.752">ReportGenerator</text><rect fill="#669999" filter="url(#f1)" height="49.2188" style="stroke: #A80036; stroke-width: 1.5;" width="122" x="154" y="627.75"/><text fill="#000000" font-family="sans-serif" font-size="14" lengthAdjust="spacingAndGlyphs" textLength="27" x="201.5" y="649.2832">PBS</text><text fill="#000000" font-family="sans-serif" font-size="14" lengthAdjust="spacingAndGlyphs" textLength="108" x="161" y="666.8926">ReportGenerator</text><rect fill="#669999" filter="url(#f1)" height="49.2188" style="stroke: #A80036; stroke-width: 1.5;" width="99" x="290" y="34.6094"/><text fill="#000000" font-family="sans-serif" font-size="14" lengthAdjust="spacingAndGlyphs" textLength="27" x="326" y="56.1426">PBS</text><text fill="#000000" font-family="sans-serif" font-size="14" lengthAdjust="spacingAndGlyphs" textLength="85" x="297" y="73.752">Configuration</text><rect fill="#669999" filter="url(#f1)" height="49.2188" style="stroke: #A80036; stroke-width: 1.5;" width="99" x="290" y="627.75"/><text fill="#000000" font-family="sans-serif" font-size="14" lengthAdjust="spacingAndGlyphs" textLength="27" x="326" y="649.2832">PBS</text><text fill="#000000" font-family="sans-serif" font-size="14" lengthAdjust="spacingAndGlyphs" textLength="85" x="297" y="666.8926">Configuration</text><rect fill="#996633" filter="url(#f1)" height="49.2188" style="stroke: #A80036; stroke-width: 1.5;" width="123" x="403" y="34.6094"/><text fill="#000000" font-family="sans-serif" font-size="14" lengthAdjust="spacingAndGlyphs" textLength="19" x="455" y="56.1426">DB</text><text fill="#000000" font-family="sans-serif" font-size="14" lengthAdjust="spacingAndGlyphs" textLength="109" x="410" y="73.752">AlertCellStatistics</text><rect fill="#996633" filter="url(#f1)" height="49.2188" style="stroke: #A80036; stroke-width: 1.5;" width="123" x="403" y="627.75"/><text fill="#000000" font-family="sans-serif" font-size="14" lengthAdjust="spacingAndGlyphs" textLength="19" x="455" y="649.2832">DB</text><text fill="#000000" font-family="sans-serif" font-size="14" lengthAdjust="spacingAndGlyphs" textLength="109" x="410" y="666.8926">AlertCellStatistics</text><rect fill="#999966" filter="url(#f1)" height="49.2188" style="stroke: #A80036; stroke-width: 1.5;" width="128" x="540" y="34.6094"/><text fill="#000000" font-family="sans-serif" font-size="14" lengthAdjust="spacingAndGlyphs" textLength="85" x="561.5" y="56.1426">Common Doc</text><text fill="#000000" font-family="sans-serif" font-size="14" lengthAdjust="spacingAndGlyphs" textLength="114" x="547" y="73.752">CsvDocGenerator</text><rect fill="#999966" filter="url(#f1)" height="49.2188" style="stroke: #A80036; stroke-width: 1.5;" width="128" x="540" y="627.75"/><text fill="#000000" font-family="sans-serif" font-size="14" lengthAdjust="spacingAndGlyphs" textLength="85" x="561.5" y="649.2832">Common Doc</text><text fill="#000000" font-family="sans-serif" font-size="14" lengthAdjust="spacingAndGlyphs" textLength="114" x="547" y="666.8926">CsvDocGenerator</text><rect fill="#FFCCFF" filter="url(#f1)" height="31.6094" style="stroke: #A80036; stroke-width: 1.5;" width="70" x="682" y="52.2188"/><text fill="#000000" font-family="sans-serif" font-size="14" lengthAdjust="spacingAndGlyphs" textLength="56" x="689" y="73.752">SFTP dir</text><rect fill="#FFCCFF" filter="url(#f1)" height="31.6094" style="stroke: #A80036; stroke-width: 1.5;" width="70" x="682" y="627.75"/><text fill="#000000" font-family="sans-serif" font-size="14" lengthAdjust="spacingAndGlyphs" textLength="56" x="689" y="649.2832">SFTP dir</text><rect fill="#FFFFFF" filter="url(#f1)" height="489.9219" style="stroke: #A80036; stroke-width: 1.0;" width="10" x="78.5" y="128.8281"/><rect fill="#FFFFFF" filter="url(#f1)" height="113.2305" style="stroke: #A80036; stroke-width: 1.0;" width="10" x="212" y="266.2344"/><line style="stroke: #A80036; stroke-width: 1.0;" x1="83.5" x2="130.5" y1="116.1797" y2="116.1797"/><line style="stroke: #A80036; stroke-width: 1.0;" x1="130.5" x2="130.5" y1="116.1797" y2="129.1797"/><line style="stroke: #A80036; stroke-width: 1.0;" x1="89.5" x2="130.5" y1="129.1797" y2="129.1797"/><polygon fill="#A80036" points="99.5,125.1797,89.5,129.1797,99.5,133.1797,95.5,129.1797" style="stroke: #A80036; stroke-width: 1.0;"/><text fill="#000000" font-family="sans-serif" font-size="13" lengthAdjust="spacingAndGlyphs" textLength="26" x="95.5" y="111.3232">run()</text><polygon fill="#FBFB77" filter="url(#f1)" points="138,105.3281,138,131.3281,265,131.3281,265,115.3281,255,105.3281,138,105.3281" style="stroke: #A80036; stroke-width: 1.0;"/><line style="stroke: #A80036; stroke-width: 1.0;" x1="255" x2="255" y1="105.3281" y2="115.3281"/><line style="stroke: #A80036; stroke-width: 1.0;" x1="265" x2="255" y1="115.3281" y2="115.3281"/><text fill="#000000" font-family="sans-serif" font-size="13" lengthAdjust="spacingAndGlyphs" textLength="106" x="144" y="123.8232">called by executor</text><polygon fill="#A80036" points="329.5,165.5313,339.5,169.5313,329.5,173.5313,333.5,169.5313" style="stroke: #A80036; stroke-width: 1.0;"/><line style="stroke: #A80036; stroke-width: 1.0;" x1="88.5" x2="335.5" y1="169.5313" y2="169.5313"/><polygon fill="#FBFB77" filter="url(#f1)" points="346,147.1797,346,189.1797,568,189.1797,568,157.1797,558,147.1797,346,147.1797" style="stroke: #A80036; stroke-width: 1.0;"/><line style="stroke: #A80036; stroke-width: 1.0;" x1="558" x2="558" y1="147.1797" y2="157.1797"/><line style="stroke: #A80036; stroke-width: 1.0;" x1="568" x2="558" y1="157.1797" y2="157.1797"/><text fill="#000000" font-family="sans-serif" font-size="13" lengthAdjust="spacingAndGlyphs" textLength="131" x="352" y="165.6748">read configuration from</text><text fill="#000000" font-family="sans-serif" font-size="13" lengthAdjust="spacingAndGlyphs" textLength="201" x="352" y="182.0264">properties files/DB sitedata/license</text><line style="stroke: #A80036; stroke-width: 1.0;" x1="88.5" x2="130.5" y1="211.5586" y2="211.5586"/><line style="stroke: #A80036; stroke-width: 1.0;" x1="130.5" x2="130.5" y1="211.5586" y2="224.5586"/><line style="stroke: #A80036; stroke-width: 1.0;" x1="89.5" x2="130.5" y1="224.5586" y2="224.5586"/><polygon fill="#A80036" points="99.5,220.5586,89.5,224.5586,99.5,228.5586,95.5,224.5586" style="stroke: #A80036; stroke-width: 1.0;"/><polygon fill="#FBFB77" filter="url(#f1)" points="138,203.8828,138,229.8828,304,229.8828,304,213.8828,294,203.8828,138,203.8828" style="stroke: #A80036; stroke-width: 1.0;"/><line style="stroke: #A80036; stroke-width: 1.0;" x1="294" x2="294" y1="203.8828" y2="213.8828"/><line style="stroke: #A80036; stroke-width: 1.0;" x1="304" x2="294" y1="213.8828" y2="213.8828"/><text fill="#000000" font-family="sans-serif" font-size="13" lengthAdjust="spacingAndGlyphs" textLength="145" x="144" y="222.3779">verify if feature is enabled</text><polygon fill="#A80036" points="200,262.2344,210,266.2344,200,270.2344,204,266.2344" style="stroke: #A80036; stroke-width: 1.0;"/><line style="stroke: #A80036; stroke-width: 1.0;" x1="88.5" x2="206" y1="266.2344" y2="266.2344"/><text fill="#000000" font-family="sans-serif" font-size="13" lengthAdjust="spacingAndGlyphs" textLength="58" x="95.5" y="261.7295">generate()</text><polygon fill="#FBFB77" filter="url(#f1)" points="227,244.2344,227,270.2344,375,270.2344,375,254.2344,365,244.2344,227,244.2344" style="stroke: #A80036; stroke-width: 1.0;"/><line style="stroke: #A80036; stroke-width: 1.0;" x1="365" x2="365" y1="244.2344" y2="254.2344"/><line style="stroke: #A80036; stroke-width: 1.0;" x1="375" x2="365" y1="254.2344" y2="254.2344"/><text fill="#000000" font-family="sans-serif" font-size="13" lengthAdjust="spacingAndGlyphs" textLength="127" x="233" y="262.7295">generate month report</text><polygon fill="#A80036" points="454.5,294.7617,464.5,298.7617,454.5,302.7617,458.5,298.7617" style="stroke: #A80036; stroke-width: 1.0;"/><line style="stroke: #A80036; stroke-width: 1.0;" x1="222" x2="460.5" y1="298.7617" y2="298.7617"/><polygon fill="#FBFB77" filter="url(#f1)" points="471,284.5859,471,310.5859,647,310.5859,647,294.5859,637,284.5859,471,284.5859" style="stroke: #A80036; stroke-width: 1.0;"/><line style="stroke: #A80036; stroke-width: 1.0;" x1="637" x2="637" y1="284.5859" y2="294.5859"/><line style="stroke: #A80036; stroke-width: 1.0;" x1="647" x2="637" y1="294.5859" y2="294.5859"/><text fill="#000000" font-family="sans-serif" font-size="13" lengthAdjust="spacingAndGlyphs" textLength="155" x="477" y="303.0811">get alert statistics from DB</text><polygon fill="#A80036" points="594,335.1133,604,339.1133,594,343.1133,598,339.1133" style="stroke: #A80036; stroke-width: 1.0;"/><line style="stroke: #A80036; stroke-width: 1.0;" x1="222" x2="600" y1="339.1133" y2="339.1133"/><polygon fill="#FBFB77" filter="url(#f1)" points="611,324.9375,611,350.9375,713,350.9375,713,334.9375,703,324.9375,611,324.9375" style="stroke: #A80036; stroke-width: 1.0;"/><line style="stroke: #A80036; stroke-width: 1.0;" x1="703" x2="703" y1="324.9375" y2="334.9375"/><line style="stroke: #A80036; stroke-width: 1.0;" x1="713" x2="703" y1="334.9375" y2="334.9375"/><text fill="#000000" font-family="sans-serif" font-size="13" lengthAdjust="spacingAndGlyphs" textLength="81" x="617" y="343.4326">generate CSV</text><polygon fill="#A80036" points="707,375.4648,717,379.4648,707,383.4648,711,379.4648" style="stroke: #A80036; stroke-width: 1.0;"/><line style="stroke: #A80036; stroke-width: 1.0;" x1="217" x2="713" y1="379.4648" y2="379.4648"/><polygon fill="#FBFB77" filter="url(#f1)" points="724,365.2891,724,391.2891,907,391.2891,907,375.2891,897,365.2891,724,365.2891" style="stroke: #A80036; stroke-width: 1.0;"/><line style="stroke: #A80036; stroke-width: 1.0;" x1="897" x2="897" y1="365.2891" y2="375.2891"/><line style="stroke: #A80036; stroke-width: 1.0;" x1="907" x2="897" y1="375.2891" y2="375.2891"/><text fill="#000000" font-family="sans-serif" font-size="13" lengthAdjust="spacingAndGlyphs" textLength="162" x="730" y="383.7842">save CSV in SFTP directory</text><rect fill="none" height="58.7031" style="stroke: #000000; stroke-width: 2.0;" width="630.5" x="13" y="407.6406"/><polygon fill="#EEEEEE" points="13,407.6406,74,407.6406,74,415.6406,64,425.6406,13,425.6406,13,407.6406" style="stroke: #000000; stroke-width: 2.0;"/><text fill="#000000" font-family="sans-serif" font-size="13" font-weight="bold" lengthAdjust="spacingAndGlyphs" textLength="16" x="28" y="422.1357">alt</text><text fill="#000000" font-family="sans-serif" font-size="11" font-weight="bold" lengthAdjust="spacingAndGlyphs" textLength="208" x="89" y="421.0596">[should generation date be updated?]</text><polygon fill="#A80036" points="454.5,441.168,464.5,445.168,454.5,449.168,458.5,445.168" style="stroke: #A80036; stroke-width: 1.0;"/><line style="stroke: #A80036; stroke-width: 1.0;" x1="88.5" x2="460.5" y1="445.168" y2="445.168"/><polygon fill="#FBFB77" filter="url(#f1)" points="471,430.9922,471,456.9922,624,456.9922,624,440.9922,614,430.9922,471,430.9922" style="stroke: #A80036; stroke-width: 1.0;"/><line style="stroke: #A80036; stroke-width: 1.0;" x1="614" x2="614" y1="430.9922" y2="440.9922"/><line style="stroke: #A80036; stroke-width: 1.0;" x1="624" x2="614" y1="440.9922" y2="440.9922"/><text fill="#000000" font-family="sans-serif" font-size="13" lengthAdjust="spacingAndGlyphs" textLength="132" x="477" y="449.4873">update generation date</text><rect fill="none" height="58.7031" style="stroke: #000000; stroke-width: 2.0;" width="677.5" x="13" y="480.3438"/><polygon fill="#EEEEEE" points="13,480.3438,74,480.3438,74,488.3438,64,498.3438,13,498.3438,13,480.3438" style="stroke: #000000; stroke-width: 2.0;"/><text fill="#000000" font-family="sans-serif" font-size="13" font-weight="bold" lengthAdjust="spacingAndGlyphs" textLength="16" x="28" y="494.8389">alt</text><text fill="#000000" font-family="sans-serif" font-size="11" font-weight="bold" lengthAdjust="spacingAndGlyphs" textLength="218" x="89" y="493.7627">[should next month entry be inserted?]</text><polygon fill="#A80036" points="454.5,513.8711,464.5,517.8711,454.5,521.8711,458.5,517.8711" style="stroke: #A80036; stroke-width: 1.0;"/><line style="stroke: #A80036; stroke-width: 1.0;" x1="88.5" x2="460.5" y1="517.8711" y2="517.8711"/><polygon fill="#FBFB77" filter="url(#f1)" points="471,503.6953,471,529.6953,671,529.6953,671,513.6953,661,503.6953,471,503.6953" style="stroke: #A80036; stroke-width: 1.0;"/><line style="stroke: #A80036; stroke-width: 1.0;" x1="661" x2="661" y1="503.6953" y2="513.6953"/><line style="stroke: #A80036; stroke-width: 1.0;" x1="671" x2="661" y1="513.6953" y2="513.6953"/><text fill="#000000" font-family="sans-serif" font-size="13" lengthAdjust="spacingAndGlyphs" textLength="179" x="477" y="522.1904">insert new entry for next month</text><rect fill="none" height="58.7031" style="stroke: #000000; stroke-width: 2.0;" width="741.5" x="13" y="553.0469"/><polygon fill="#EEEEEE" points="13,553.0469,74,553.0469,74,561.0469,64,571.0469,13,571.0469,13,553.0469" style="stroke: #000000; stroke-width: 2.0;"/><text fill="#000000" font-family="sans-serif" font-size="13" font-weight="bold" lengthAdjust="spacingAndGlyphs" textLength="16" x="28" y="567.542">alt</text><text fill="#000000" font-family="sans-serif" font-size="11" font-weight="bold" lengthAdjust="spacingAndGlyphs" textLength="186" x="89" y="566.4658">[should old entries be removed?]</text><polygon fill="#A80036" points="454.5,586.5742,464.5,590.5742,454.5,594.5742,458.5,590.5742" style="stroke: #A80036; stroke-width: 1.0;"/><line style="stroke: #A80036; stroke-width: 1.0;" x1="88.5" x2="460.5" y1="590.5742" y2="590.5742"/><polygon fill="#FBFB77" filter="url(#f1)" points="471,576.3984,471,602.3984,735,602.3984,735,586.3984,725,576.3984,471,576.3984" style="stroke: #A80036; stroke-width: 1.0;"/><line style="stroke: #A80036; stroke-width: 1.0;" x1="725" x2="725" y1="576.3984" y2="586.3984"/><line style="stroke: #A80036; stroke-width: 1.0;" x1="735" x2="725" y1="586.3984" y2="586.3984"/><text fill="#000000" font-family="sans-serif" font-size="13" lengthAdjust="spacingAndGlyphs" textLength="243" x="477" y="594.8936">remove entries older than 3 years from DB</text></g></svg>