<?xml version="1.0" encoding="UTF-8" standalone="yes"?><svg xmlns="http://www.w3.org/2000/svg" xmlns:xlink="http://www.w3.org/1999/xlink" height="898px" style="width:1009px;height:898px;" version="1.1" viewBox="0 0 1009 898" width="1009px"><defs><filter height="300%" id="f1" width="300%" x="-1" y="-1"><feGaussianBlur result="blurOut" stdDeviation="2.0"/><feColorMatrix in="blurOut" result="blurOut2" type="matrix" values="0 0 0 0 0 0 0 0 0 0 0 0 0 0 0 0 0 0 .4 0"/><feOffset dx="4.0" dy="4.0" in="blurOut2" result="blurOut3"/><feBlend in="SourceGraphic" in2="blurOut3" mode="normal"/></filter></defs><g><text fill="#000000" font-family="sans-serif" font-size="14" font-weight="bold" lengthAdjust="spacingAndGlyphs" textLength="198" x="409.75" y="24.5332">Initialize auto report service</text><rect fill="#FFFFFF" filter="url(#f1)" height="40.7031" style="stroke: #A80036; stroke-width: 1.0;" width="10" x="99.5" y="128.8281"/><rect fill="#FFFFFF" filter="url(#f1)" height="573.3555" style="stroke: #A80036; stroke-width: 1.0;" width="10" x="99.5" y="228.8828"/><rect fill="#FFFFFF" filter="url(#f1)" height="137.4063" style="stroke: #A80036; stroke-width: 1.0;" width="10" x="104.5" y="272.2344"/><rect fill="#FFFFFF" filter="url(#f1)" height="323.8945" style="stroke: #A80036; stroke-width: 1.0;" width="10" x="104.5" y="478.3438"/><rect fill="#FFFFFF" filter="url(#f1)" height="48.5273" style="stroke: #A80036; stroke-width: 1.0;" width="10" x="360.5" y="361.1133"/><rect fill="#FFFFFF" filter="url(#f1)" height="393.9219" style="stroke: #000000; stroke-width: 2.0;" width="702.5" x="12" y="429.9922"/><rect fill="#FFFFFF" filter="url(#f1)" height="115.4063" style="stroke: #000000; stroke-width: 2.0;" width="678.5" x="26" y="539.0469"/><line style="stroke: #A80036; stroke-width: 1.0; stroke-dasharray: 5.0,5.0;" x1="104" x2="104" y1="88.8281" y2="840.9141"/><line style="stroke: #A80036; stroke-width: 1.0; stroke-dasharray: 5.0,5.0;" x1="243" x2="243" y1="88.8281" y2="840.9141"/><line style="stroke: #A80036; stroke-width: 1.0; stroke-dasharray: 5.0,5.0;" x1="365" x2="365" y1="88.8281" y2="840.9141"/><line style="stroke: #A80036; stroke-width: 1.0; stroke-dasharray: 5.0,5.0;" x1="523" x2="523" y1="88.8281" y2="840.9141"/><rect fill="#669999" filter="url(#f1)" height="49.2188" style="stroke: #A80036; stroke-width: 1.5;" width="133" x="36" y="34.6094"/><text fill="#000000" font-family="sans-serif" font-size="14" lengthAdjust="spacingAndGlyphs" textLength="27" x="89" y="56.1426">PBS</text><text fill="#000000" font-family="sans-serif" font-size="14" lengthAdjust="spacingAndGlyphs" textLength="119" x="43" y="73.752">AutoReportService</text><rect fill="#669999" filter="url(#f1)" height="49.2188" style="stroke: #A80036; stroke-width: 1.5;" width="133" x="36" y="839.9141"/><text fill="#000000" font-family="sans-serif" font-size="14" lengthAdjust="spacingAndGlyphs" textLength="27" x="89" y="861.4473">PBS</text><text fill="#000000" font-family="sans-serif" font-size="14" lengthAdjust="spacingAndGlyphs" textLength="119" x="43" y="879.0566">AutoReportService</text><rect fill="#669999" filter="url(#f1)" height="49.2188" style="stroke: #A80036; stroke-width: 1.5;" width="99" x="192" y="34.6094"/><text fill="#000000" font-family="sans-serif" font-size="14" lengthAdjust="spacingAndGlyphs" textLength="27" x="228" y="56.1426">PBS</text><text fill="#000000" font-family="sans-serif" font-size="14" lengthAdjust="spacingAndGlyphs" textLength="85" x="199" y="73.752">Configuration</text><rect fill="#669999" filter="url(#f1)" height="49.2188" style="stroke: #A80036; stroke-width: 1.5;" width="99" x="192" y="839.9141"/><text fill="#000000" font-family="sans-serif" font-size="14" lengthAdjust="spacingAndGlyphs" textLength="27" x="228" y="861.4473">PBS</text><text fill="#000000" font-family="sans-serif" font-size="14" lengthAdjust="spacingAndGlyphs" textLength="85" x="199" y="879.0566">Configuration</text><rect fill="#669999" filter="url(#f1)" height="49.2188" style="stroke: #A80036; stroke-width: 1.5;" width="117" x="305" y="34.6094"/><text fill="#000000" font-family="sans-serif" font-size="14" lengthAdjust="spacingAndGlyphs" textLength="27" x="350" y="56.1426">PBS</text><text fill="#000000" font-family="sans-serif" font-size="14" lengthAdjust="spacingAndGlyphs" textLength="103" x="312" y="73.752">AutoReportTask</text><rect fill="#669999" filter="url(#f1)" height="49.2188" style="stroke: #A80036; stroke-width: 1.5;" width="117" x="305" y="839.9141"/><text fill="#000000" font-family="sans-serif" font-size="14" lengthAdjust="spacingAndGlyphs" textLength="27" x="350" y="861.4473">PBS</text><text fill="#000000" font-family="sans-serif" font-size="14" lengthAdjust="spacingAndGlyphs" textLength="103" x="312" y="879.0566">AutoReportTask</text><rect fill="#996633" filter="url(#f1)" height="49.2188" style="stroke: #A80036; stroke-width: 1.5;" width="123" x="460" y="34.6094"/><text fill="#000000" font-family="sans-serif" font-size="14" lengthAdjust="spacingAndGlyphs" textLength="19" x="512" y="56.1426">DB</text><text fill="#000000" font-family="sans-serif" font-size="14" lengthAdjust="spacingAndGlyphs" textLength="109" x="467" y="73.752">AlertCellStatistics</text><rect fill="#996633" filter="url(#f1)" height="49.2188" style="stroke: #A80036; stroke-width: 1.5;" width="123" x="460" y="839.9141"/><text fill="#000000" font-family="sans-serif" font-size="14" lengthAdjust="spacingAndGlyphs" textLength="19" x="512" y="861.4473">DB</text><text fill="#000000" font-family="sans-serif" font-size="14" lengthAdjust="spacingAndGlyphs" textLength="109" x="467" y="879.0566">AlertCellStatistics</text><rect fill="#FFFFFF" filter="url(#f1)" height="40.7031" style="stroke: #A80036; stroke-width: 1.0;" width="10" x="99.5" y="128.8281"/><rect fill="#FFFFFF" filter="url(#f1)" height="573.3555" style="stroke: #A80036; stroke-width: 1.0;" width="10" x="99.5" y="228.8828"/><rect fill="#FFFFFF" filter="url(#f1)" height="137.4063" style="stroke: #A80036; stroke-width: 1.0;" width="10" x="104.5" y="272.2344"/><rect fill="#FFFFFF" filter="url(#f1)" height="323.8945" style="stroke: #A80036; stroke-width: 1.0;" width="10" x="104.5" y="478.3438"/><rect fill="#FFFFFF" filter="url(#f1)" height="48.5273" style="stroke: #A80036; stroke-width: 1.0;" width="10" x="360.5" y="361.1133"/><line style="stroke: #A80036; stroke-width: 1.0;" x1="104.5" x2="151.5" y1="116.1797" y2="116.1797"/><line style="stroke: #A80036; stroke-width: 1.0;" x1="151.5" x2="151.5" y1="116.1797" y2="129.1797"/><line style="stroke: #A80036; stroke-width: 1.0;" x1="110.5" x2="151.5" y1="129.1797" y2="129.1797"/><polygon fill="#A80036" points="120.5,125.1797,110.5,129.1797,120.5,133.1797,116.5,129.1797" style="stroke: #A80036; stroke-width: 1.0;"/><text fill="#000000" font-family="sans-serif" font-size="13" lengthAdjust="spacingAndGlyphs" textLength="42" x="116.5" y="111.3232">onLoad</text><polygon fill="#FBFB77" filter="url(#f1)" points="170,105.3281,170,131.3281,306,131.3281,306,115.3281,296,105.3281,170,105.3281" style="stroke: #A80036; stroke-width: 1.0;"/><line style="stroke: #A80036; stroke-width: 1.0;" x1="296" x2="296" y1="105.3281" y2="115.3281"/><line style="stroke: #A80036; stroke-width: 1.0;" x1="306" x2="296" y1="115.3281" y2="115.3281"/><text fill="#000000" font-family="sans-serif" font-size="13" lengthAdjust="spacingAndGlyphs" textLength="115" x="176" y="123.8232">called by PBS-base</text><polygon fill="#A80036" points="231.5,165.5313,241.5,169.5313,231.5,173.5313,235.5,169.5313" style="stroke: #A80036; stroke-width: 1.0;"/><line style="stroke: #A80036; stroke-width: 1.0;" x1="104.5" x2="237.5" y1="169.5313" y2="169.5313"/><polygon fill="#FBFB77" filter="url(#f1)" points="248,147.1797,248,189.1797,470,189.1797,470,157.1797,460,147.1797,248,147.1797" style="stroke: #A80036; stroke-width: 1.0;"/><line style="stroke: #A80036; stroke-width: 1.0;" x1="460" x2="460" y1="147.1797" y2="157.1797"/><line style="stroke: #A80036; stroke-width: 1.0;" x1="470" x2="460" y1="157.1797" y2="157.1797"/><text fill="#000000" font-family="sans-serif" font-size="13" lengthAdjust="spacingAndGlyphs" textLength="131" x="254" y="165.6748">read configuration from</text><text fill="#000000" font-family="sans-serif" font-size="13" lengthAdjust="spacingAndGlyphs" textLength="201" x="254" y="182.0264">properties files/DB sitedata/license</text><line style="stroke: #A80036; stroke-width: 1.0;" x1="104.5" x2="151.5" y1="216.2344" y2="216.2344"/><line style="stroke: #A80036; stroke-width: 1.0;" x1="151.5" x2="151.5" y1="216.2344" y2="229.2344"/><line style="stroke: #A80036; stroke-width: 1.0;" x1="110.5" x2="151.5" y1="229.2344" y2="229.2344"/><polygon fill="#A80036" points="120.5,225.2344,110.5,229.2344,120.5,233.2344,116.5,229.2344" style="stroke: #A80036; stroke-width: 1.0;"/><text fill="#000000" font-family="sans-serif" font-size="13" lengthAdjust="spacingAndGlyphs" textLength="28" x="116.5" y="211.3779">main</text><polygon fill="#FBFB77" filter="url(#f1)" points="159,205.3828,159,231.3828,295,231.3828,295,215.3828,285,205.3828,159,205.3828" style="stroke: #A80036; stroke-width: 1.0;"/><line style="stroke: #A80036; stroke-width: 1.0;" x1="285" x2="285" y1="205.3828" y2="215.3828"/><line style="stroke: #A80036; stroke-width: 1.0;" x1="295" x2="285" y1="215.3828" y2="215.3828"/><text fill="#000000" font-family="sans-serif" font-size="13" lengthAdjust="spacingAndGlyphs" textLength="115" x="165" y="223.8779">called by PBS-base</text><line style="stroke: #A80036; stroke-width: 1.0;" x1="109.5" x2="156.5" y1="259.5859" y2="259.5859"/><line style="stroke: #A80036; stroke-width: 1.0;" x1="156.5" x2="156.5" y1="259.5859" y2="272.5859"/><line style="stroke: #A80036; stroke-width: 1.0;" x1="115.5" x2="156.5" y1="272.5859" y2="272.5859"/><polygon fill="#A80036" points="125.5,268.5859,115.5,272.5859,125.5,276.5859,121.5,272.5859" style="stroke: #A80036; stroke-width: 1.0;"/><text fill="#000000" font-family="sans-serif" font-size="13" lengthAdjust="spacingAndGlyphs" textLength="115" x="121.5" y="254.7295">generateOldReports</text><polygon fill="#A80036" points="511.5,308.5859,521.5,312.5859,511.5,316.5859,515.5,312.5859" style="stroke: #A80036; stroke-width: 1.0;"/><line style="stroke: #A80036; stroke-width: 1.0;" x1="114.5" x2="517.5" y1="312.5859" y2="312.5859"/><text fill="#000000" font-family="sans-serif" font-size="13" lengthAdjust="spacingAndGlyphs" textLength="136" x="121.5" y="308.0811">queryAlertCellStatistics</text><polygon fill="#FBFB77" filter="url(#f1)" points="528,290.5859,528,316.5859,1000,316.5859,1000,300.5859,990,290.5859,528,290.5859" style="stroke: #A80036; stroke-width: 1.0;"/><line style="stroke: #A80036; stroke-width: 1.0;" x1="990" x2="990" y1="290.5859" y2="300.5859"/><line style="stroke: #A80036; stroke-width: 1.0;" x1="1000" x2="990" y1="300.5859" y2="300.5859"/><text fill="#000000" font-family="sans-serif" font-size="13" lengthAdjust="spacingAndGlyphs" textLength="451" x="534" y="309.0811">Get all statistics older than 2 month than next run with empty generation date.</text><polygon fill="#A80036" points="348.5,357.1133,358.5,361.1133,348.5,365.1133,352.5,361.1133" style="stroke: #A80036; stroke-width: 1.0;"/><line style="stroke: #A80036; stroke-width: 1.0;" x1="114.5" x2="354.5" y1="361.1133" y2="361.1133"/><text fill="#000000" font-family="sans-serif" font-size="13" lengthAdjust="spacingAndGlyphs" textLength="18" x="121.5" y="356.6084">run</text><polygon fill="#FBFB77" filter="url(#f1)" points="375,330.9375,375,372.9375,821,372.9375,821,340.9375,811,330.9375,375,330.9375" style="stroke: #A80036; stroke-width: 1.0;"/><line style="stroke: #A80036; stroke-width: 1.0;" x1="811" x2="811" y1="330.9375" y2="340.9375"/><line style="stroke: #A80036; stroke-width: 1.0;" x1="821" x2="811" y1="340.9375" y2="340.9375"/><text fill="#000000" font-family="sans-serif" font-size="13" lengthAdjust="spacingAndGlyphs" textLength="307" x="381" y="349.4326">Run month report generation for each skipped month.</text><text fill="#000000" font-family="sans-serif" font-size="13" lengthAdjust="spacingAndGlyphs" textLength="425" x="381" y="365.7842">Run year report generation for each skipped year (excluding current year).</text><polygon fill="#A80036" points="511.5,405.6406,521.5,409.6406,511.5,413.6406,515.5,409.6406" style="stroke: #A80036; stroke-width: 1.0;"/><line style="stroke: #A80036; stroke-width: 1.0;" x1="365.5" x2="517.5" y1="409.6406" y2="409.6406"/><text fill="#000000" font-family="sans-serif" font-size="13" lengthAdjust="spacingAndGlyphs" textLength="129" x="372.5" y="405.1357">updateGenerationDate</text><polygon fill="#FBFB77" filter="url(#f1)" points="528,387.6406,528,413.6406,814,413.6406,814,397.6406,804,387.6406,528,387.6406" style="stroke: #A80036; stroke-width: 1.0;"/><line style="stroke: #A80036; stroke-width: 1.0;" x1="804" x2="804" y1="387.6406" y2="397.6406"/><line style="stroke: #A80036; stroke-width: 1.0;" x1="814" x2="804" y1="397.6406" y2="397.6406"/><text fill="#000000" font-family="sans-serif" font-size="13" lengthAdjust="spacingAndGlyphs" textLength="265" x="534" y="406.1357">Update generation time for each month report.</text><rect fill="none" height="393.9219" style="stroke: #000000; stroke-width: 2.0;" width="702.5" x="12" y="429.9922"/><polygon fill="#EEEEEE" points="12,429.9922,85,429.9922,85,437.9922,75,447.9922,12,447.9922,12,429.9922" style="stroke: #000000; stroke-width: 2.0;"/><text fill="#000000" font-family="sans-serif" font-size="13" font-weight="bold" lengthAdjust="spacingAndGlyphs" textLength="28" x="27" y="444.4873">loop</text><text fill="#000000" font-family="sans-serif" font-size="11" font-weight="bold" lengthAdjust="spacingAndGlyphs" textLength="92" x="100" y="443.4111">[while (running)]</text><line style="stroke: #A80036; stroke-width: 1.0;" x1="109.5" x2="156.5" y1="465.6953" y2="465.6953"/><line style="stroke: #A80036; stroke-width: 1.0;" x1="156.5" x2="156.5" y1="465.6953" y2="478.6953"/><line style="stroke: #A80036; stroke-width: 1.0;" x1="115.5" x2="156.5" y1="478.6953" y2="478.6953"/><polygon fill="#A80036" points="125.5,474.6953,115.5,478.6953,125.5,482.6953,121.5,478.6953" style="stroke: #A80036; stroke-width: 1.0;"/><text fill="#000000" font-family="sans-serif" font-size="13" lengthAdjust="spacingAndGlyphs" textLength="74" x="121.5" y="460.8389">mainIteration</text><polygon fill="#FBFB77" filter="url(#f1)" points="22,496.6953,22,522.6953,443,522.6953,443,506.6953,433,496.6953,22,496.6953" style="stroke: #A80036; stroke-width: 1.0;"/><line style="stroke: #A80036; stroke-width: 1.0;" x1="433" x2="433" y1="496.6953" y2="506.6953"/><line style="stroke: #A80036; stroke-width: 1.0;" x1="443" x2="433" y1="506.6953" y2="506.6953"/><text fill="#000000" font-family="sans-serif" font-size="13" lengthAdjust="spacingAndGlyphs" textLength="400" x="28" y="515.1904">Note that configuration was loaded in onLoad or in previous interation.</text><rect fill="none" height="115.4063" style="stroke: #000000; stroke-width: 2.0;" width="678.5" x="26" y="539.0469"/><polygon fill="#EEEEEE" points="26,539.0469,87,539.0469,87,547.0469,77,557.0469,26,557.0469,26,539.0469" style="stroke: #000000; stroke-width: 2.0;"/><text fill="#000000" font-family="sans-serif" font-size="13" font-weight="bold" lengthAdjust="spacingAndGlyphs" textLength="16" x="41" y="553.542">alt</text><text fill="#000000" font-family="sans-serif" font-size="11" font-weight="bold" lengthAdjust="spacingAndGlyphs" textLength="205" x="102" y="552.4658">[is report generating for December?]</text><polygon fill="#A80036" points="353.5,580.75,363.5,584.75,353.5,588.75,357.5,584.75" style="stroke: #A80036; stroke-width: 1.0;"/><line style="stroke: #A80036; stroke-width: 1.0;" x1="114.5" x2="359.5" y1="584.75" y2="584.75"/><polygon fill="#FBFB77" filter="url(#f1)" points="370,562.3984,370,604.3984,685,604.3984,685,572.3984,675,562.3984,370,562.3984" style="stroke: #A80036; stroke-width: 1.0;"/><line style="stroke: #A80036; stroke-width: 1.0;" x1="675" x2="675" y1="562.3984" y2="572.3984"/><line style="stroke: #A80036; stroke-width: 1.0;" x1="685" x2="675" y1="572.3984" y2="572.3984"/><text fill="#000000" font-family="sans-serif" font-size="13" lengthAdjust="spacingAndGlyphs" textLength="182" x="376" y="580.8936">schedule year report generation</text><text fill="#000000" font-family="sans-serif" font-size="13" lengthAdjust="spacingAndGlyphs" textLength="294" x="376" y="597.2451">When task will be called it will reload configuration.</text><line style="stroke: #A80036; stroke-width: 1.0;" x1="114.5" x2="156.5" y1="626.7773" y2="626.7773"/><line style="stroke: #A80036; stroke-width: 1.0;" x1="156.5" x2="156.5" y1="626.7773" y2="639.7773"/><line style="stroke: #A80036; stroke-width: 1.0;" x1="115.5" x2="156.5" y1="639.7773" y2="639.7773"/><polygon fill="#A80036" points="125.5,635.7773,115.5,639.7773,125.5,643.7773,121.5,639.7773" style="stroke: #A80036; stroke-width: 1.0;"/><polygon fill="#FBFB77" filter="url(#f1)" points="164,619.1016,164,645.1016,367,645.1016,367,629.1016,357,619.1016,164,619.1016" style="stroke: #A80036; stroke-width: 1.0;"/><line style="stroke: #A80036; stroke-width: 1.0;" x1="357" x2="357" y1="619.1016" y2="629.1016"/><line style="stroke: #A80036; stroke-width: 1.0;" x1="367" x2="357" y1="629.1016" y2="629.1016"/><text fill="#000000" font-family="sans-serif" font-size="13" lengthAdjust="spacingAndGlyphs" textLength="182" x="170" y="637.5967">wait until AutoReportTask finish</text><polygon fill="#A80036" points="353.5,717.5078,363.5,721.5078,353.5,725.5078,357.5,721.5078" style="stroke: #A80036; stroke-width: 1.0;"/><line style="stroke: #A80036; stroke-width: 1.0;" x1="114.5" x2="359.5" y1="721.5078" y2="721.5078"/><polygon fill="#FBFB77" filter="url(#f1)" points="370,666.4531,370,774.4531,685,774.4531,685,676.4531,675,666.4531,370,666.4531" style="stroke: #A80036; stroke-width: 1.0;"/><line style="stroke: #A80036; stroke-width: 1.0;" x1="675" x2="675" y1="666.4531" y2="676.4531"/><line style="stroke: #A80036; stroke-width: 1.0;" x1="685" x2="675" y1="676.4531" y2="676.4531"/><text fill="#000000" font-family="sans-serif" font-size="13" lengthAdjust="spacingAndGlyphs" textLength="193" x="376" y="684.9482">schedule month report generation</text><text fill="#000000" font-family="sans-serif" font-size="13" lengthAdjust="spacingAndGlyphs" textLength="294" x="376" y="701.2998">When task will be called it will reload configuration.</text><text fill="#000000" font-family="sans-serif" font-size="13" lengthAdjust="spacingAndGlyphs" textLength="78" x="376" y="717.6514">Set option to:</text><ellipse cx="381.5" cy="729.3594" fill="#000000" rx="2.5" ry="2.5" style="stroke: #000000; stroke-width: 0.0;"/><text fill="#000000" font-family="sans-serif" font-size="13" lengthAdjust="spacingAndGlyphs" textLength="138" x="389" y="734.0029">Update generation time.</text><ellipse cx="381.5" cy="745.7109" fill="#000000" rx="2.5" ry="2.5" style="stroke: #000000; stroke-width: 0.0;"/><text fill="#000000" font-family="sans-serif" font-size="13" lengthAdjust="spacingAndGlyphs" textLength="138" x="389" y="750.3545">Insert next month entry.</text><ellipse cx="381.5" cy="762.0625" fill="#000000" rx="2.5" ry="2.5" style="stroke: #000000; stroke-width: 0.0;"/><text fill="#000000" font-family="sans-serif" font-size="13" lengthAdjust="spacingAndGlyphs" textLength="114" x="389" y="766.7061">Remove old entries.</text><line style="stroke: #A80036; stroke-width: 1.0;" x1="114.5" x2="156.5" y1="801.2383" y2="801.2383"/><line style="stroke: #A80036; stroke-width: 1.0;" x1="156.5" x2="156.5" y1="801.2383" y2="814.2383"/><line style="stroke: #A80036; stroke-width: 1.0;" x1="109.5" x2="156.5" y1="814.2383" y2="814.2383"/><polygon fill="#A80036" points="119.5,810.2383,109.5,814.2383,119.5,818.2383,115.5,814.2383" style="stroke: #A80036; stroke-width: 1.0;"/><polygon fill="#FBFB77" filter="url(#f1)" points="164,788.5625,164,814.5625,367,814.5625,367,798.5625,357,788.5625,164,788.5625" style="stroke: #A80036; stroke-width: 1.0;"/><line style="stroke: #A80036; stroke-width: 1.0;" x1="357" x2="357" y1="788.5625" y2="798.5625"/><line style="stroke: #A80036; stroke-width: 1.0;" x1="367" x2="357" y1="798.5625" y2="798.5625"/><text fill="#000000" font-family="sans-serif" font-size="13" lengthAdjust="spacingAndGlyphs" textLength="182" x="170" y="807.0576">wait until AutoReportTask finish</text></g></svg>